<svg width="232" height="64" viewBox="0 0 232 64" fill="none" xmlns="http://www.w3.org/2000/svg">
<g clip-path="url(#clip0_16_105)">
<path d="M38.5733 13.082C40.8081 12.8693 43.8663 13.1431 46.1557 13.0965C48.6199 13.0461 50.3918 15.8377 49.2538 18.0352C47.2632 21.879 40.9412 19.0581 37.534 20.3668C36.281 20.8527 35.3359 21.8272 34.7924 23.0151C32.4583 28.0122 36.6767 29.077 37.9556 32.4994C38.3579 35.4332 35.87 37.3462 33.2226 35.8623C32.5939 35.51 31.3326 33.8506 30.8308 33.2711C28.8472 30.9798 27.343 29.6697 27.0562 26.5653C26.41 19.5701 31.4037 13.7791 38.5733 13.082Z" fill="#C27AFF"/>
<path d="M43.5976 23.2859C45.939 23.4074 46.7154 25.1086 48.0856 26.5537C50.4015 28.996 51.8001 30.7078 51.8661 34.1114C51.9076 37.376 50.5739 40.5251 48.1523 42.8809C43.3523 47.4607 38.2773 46.5786 31.9842 46.6191C31.082 46.5645 30.6056 46.5328 29.7973 46.0552C28.9566 45.5627 28.3739 44.7656 28.1893 43.8554C28.0164 43.0042 28.2279 42.1243 28.7738 41.4236C30.86 38.7566 36.6165 40.5505 39.7332 39.9342C42.6617 39.3551 44.3552 37.2051 44.5828 34.5694C44.8971 30.9317 41.216 30.0438 40.371 27.0206C39.9194 25.0697 41.68 23.5675 43.5976 23.2859Z" fill="#C27AFF"/>
<path d="M63.3309 47.256C61.4749 47.256 59.8963 46.8933 58.5949 46.168C57.2936 45.4213 56.3016 44.2053 55.6189 42.52C54.9576 40.8347 54.6269 38.552 54.6269 35.672C54.6269 32.792 54.9576 30.52 55.6189 28.856C56.3016 27.192 57.2936 26.008 58.5949 25.304C59.8963 24.6 61.4749 24.248 63.3309 24.248C65.2083 24.248 66.7869 24.6 68.0669 25.304C69.3683 26.008 70.3496 27.192 71.0109 28.856C71.6936 30.52 72.0349 32.792 72.0349 35.672C72.0349 38.552 71.6936 40.8347 71.0109 42.52C70.3496 44.2053 69.3683 45.4213 68.0669 46.168C66.7869 46.8933 65.2083 47.256 63.3309 47.256ZM63.3309 43.032C64.1843 43.032 64.9096 42.8293 65.5069 42.424C66.1256 42.0187 66.5949 41.2827 66.9149 40.216C67.2563 39.1493 67.4269 37.6347 67.4269 35.672C67.4269 33.688 67.2563 32.184 66.9149 31.16C66.5949 30.1147 66.1256 29.4107 65.5069 29.048C64.9096 28.664 64.1843 28.472 63.3309 28.472C62.4989 28.472 61.7736 28.664 61.1549 29.048C60.5363 29.4107 60.0563 30.1147 59.7149 31.16C59.3949 32.184 59.2349 33.688 59.2349 35.672C59.2349 37.6347 59.3949 39.1493 59.7149 40.216C60.0563 41.2827 60.5363 42.0187 61.1549 42.424C61.7736 42.8293 62.4989 43.032 63.3309 43.032ZM83.9597 47.256C81.3784 47.256 79.405 46.616 78.0397 45.336C76.6957 44.0347 76.0237 42.0827 76.0237 39.48V26.744C76.0237 25.08 76.7917 24.248 78.3277 24.248C79.8637 24.248 80.6317 25.08 80.6317 26.744V39.48C80.6317 40.824 80.9197 41.8053 81.4957 42.424C82.093 43.0427 82.9144 43.352 83.9597 43.352C86.5197 43.352 87.7997 42.0613 87.7997 39.48V26.744C87.7997 25.08 88.5677 24.248 90.1037 24.248C91.6397 24.248 92.4077 25.08 92.4077 26.744V39.48C92.4077 42.0613 91.693 44.0027 90.2637 45.304C88.8344 46.6053 86.733 47.256 83.9597 47.256ZM99.4014 47C97.8654 47 97.0974 46.168 97.0974 44.504V26.744C97.0974 25.08 97.8654 24.248 99.4014 24.248C100.937 24.248 101.705 25.08 101.705 26.744V40.952C101.705 41.2933 101.673 41.7307 101.609 42.264C101.567 42.776 101.513 43.2027 101.449 43.544C102.004 42.8827 102.687 42.552 103.497 42.552H108.201C108.991 42.552 109.599 42.744 110.025 43.128C110.452 43.512 110.665 44.0667 110.665 44.792C110.665 46.264 109.844 47 108.201 47H99.4014ZM117.303 45.112C117.303 46.5413 116.556 47.256 115.063 47.256C114.338 47.256 113.762 47.0747 113.335 46.712C112.908 46.3493 112.695 45.816 112.695 45.112V32.44C112.695 29.496 113.292 27.3947 114.487 26.136C115.682 24.8773 117.548 24.248 120.087 24.248C122.69 24.248 124.61 24.888 125.847 26.168C127.084 27.448 127.703 29.5387 127.703 32.44V45.112C127.703 46.5413 126.956 47.256 125.463 47.256C124.738 47.256 124.162 47.0747 123.735 46.712C123.308 46.3493 123.095 45.816 123.095 45.112V37.4C122.69 37.7627 122.242 38.072 121.751 38.328C121.282 38.584 120.727 38.712 120.087 38.712C119.148 38.712 118.444 38.8827 117.975 39.224C117.527 39.5653 117.303 40.1733 117.303 41.048V45.112ZM117.111 35.736C117.452 35.3947 117.858 35.128 118.327 34.936C118.818 34.744 119.404 34.648 120.087 34.648C120.898 34.648 121.516 34.584 121.943 34.456C122.391 34.328 122.7 34.0827 122.871 33.72C123.042 33.3573 123.127 32.824 123.127 32.12C123.127 30.5413 122.903 29.464 122.455 28.888C122.007 28.2907 121.207 27.992 120.055 27.992C118.988 27.992 118.252 28.3013 117.847 28.92C117.463 29.5173 117.271 30.6267 117.271 32.248C117.271 33.08 117.26 33.784 117.239 34.36C117.218 34.936 117.175 35.3947 117.111 35.736ZM138.731 47.256C136.385 47.256 134.529 46.5093 133.163 45.016C131.819 43.5227 131.147 41.336 131.147 38.456C131.147 36.536 131.425 35.0107 131.979 33.88C132.534 32.7493 133.302 31.9493 134.283 31.48C135.286 30.9893 136.417 30.744 137.675 30.744C138.806 30.744 139.723 30.8827 140.427 31.16C141.131 31.4373 141.686 31.9067 142.091 32.568C141.942 32.12 141.825 31.704 141.739 31.32C141.675 30.9147 141.622 30.4453 141.579 29.912C141.558 29.3787 141.547 28.696 141.547 27.864V25.112C141.547 23.448 142.262 22.616 143.691 22.616C145.249 22.616 146.027 23.448 146.027 25.112V38.648C146.027 41.528 145.387 43.6827 144.107 45.112C142.827 46.5413 141.035 47.256 138.731 47.256ZM138.507 43.416C139.403 43.416 140.097 43.096 140.587 42.456C141.099 41.816 141.355 40.6213 141.355 38.872C141.355 37.6987 141.238 36.8133 141.003 36.216C140.79 35.5973 140.47 35.1707 140.043 34.936C139.617 34.7013 139.105 34.584 138.507 34.584C137.91 34.584 137.398 34.7013 136.971 34.936C136.545 35.1707 136.214 35.5973 135.979 36.216C135.766 36.8133 135.659 37.6987 135.659 38.872C135.659 40.6213 135.905 41.816 136.395 42.456C136.907 43.096 137.611 43.416 138.507 43.416ZM151.884 47.256C150.348 47.256 149.58 46.5307 149.58 45.08V37.4C149.58 35.224 150.092 33.5707 151.116 32.44C152.162 31.3093 153.655 30.744 155.596 30.744C158.242 30.744 160.034 31.6933 160.972 33.592C161.911 31.6933 163.703 30.744 166.348 30.744C168.29 30.744 169.772 31.3093 170.796 32.44C171.842 33.5707 172.364 35.224 172.364 37.4V45.08C172.364 46.5307 171.596 47.256 170.06 47.256C168.524 47.256 167.756 46.5307 167.756 45.08V37.656C167.756 36.568 167.575 35.7893 167.212 35.32C166.85 34.8293 166.284 34.584 165.516 34.584C163.98 34.584 163.212 35.608 163.212 37.656V44.952C163.212 46.4027 162.466 47.128 160.972 47.128C159.479 47.128 158.732 46.4027 158.732 44.952V37.656C158.732 35.608 157.964 34.584 156.428 34.584C154.935 34.584 154.188 35.608 154.188 37.656V45.08C154.188 46.5307 153.42 47.256 151.884 47.256ZM178.425 27.992C177.635 27.992 176.974 27.736 176.441 27.224C175.907 26.712 175.641 26.0827 175.641 25.336C175.641 24.5467 175.907 23.896 176.441 23.384C176.974 22.872 177.635 22.616 178.425 22.616C179.235 22.616 179.897 22.872 180.409 23.384C180.942 23.896 181.209 24.5467 181.209 25.336C181.209 26.0827 180.942 26.712 180.409 27.224C179.897 27.736 179.235 27.992 178.425 27.992ZM180.729 45.112C180.729 46.5413 179.982 47.256 178.489 47.256C177.763 47.256 177.187 47.0853 176.761 46.744C176.334 46.3813 176.121 45.8373 176.121 45.112V32.92C176.121 32.2373 176.291 31.704 176.633 31.32C176.995 30.936 177.593 30.744 178.425 30.744C179.257 30.744 179.843 30.936 180.185 31.32C180.547 31.704 180.729 32.2373 180.729 32.92V45.112ZM186.774 47.256C185.238 47.256 184.47 46.5307 184.47 45.08V37.4C184.47 35.352 185.121 33.7307 186.422 32.536C187.745 31.3413 189.484 30.744 191.638 30.744C193.793 30.744 195.521 31.3413 196.822 32.536C198.145 33.7307 198.806 35.352 198.806 37.4V45.08C198.806 46.5307 198.038 47.256 196.502 47.256C194.966 47.256 194.198 46.5307 194.198 45.08V37.656C194.198 36.6533 193.974 35.896 193.526 35.384C193.078 34.8507 192.449 34.584 191.638 34.584C190.828 34.584 190.198 34.8507 189.75 35.384C189.302 35.896 189.078 36.6533 189.078 37.656V45.08C189.078 46.5307 188.31 47.256 186.774 47.256Z" fill="#1A1A1A"/>
</g>
<defs>
<clipPath id="clip0_16_105">
<rect width="232" height="64" fill="white"/>
</clipPath>
</defs>
</svg>
